<?xml version="1.0"?>
<svg version="1.1" xmlns="http://www.w3.org/2000/svg" xmlns:xlink="http://www.w3.org/1999/xlink" width="32" height="32">
    <desc iVinci="yes" version="4.5" gridStep="20" showGrid="no" snapToGrid="no" codePlatform="0"/>
    <g id="Layer1" opacity="1">
        <g id="Shape1">
            <desc shapeID="1" type="0" basicInfo-basicType="0" basicInfo-roundedRectRadius="12" basicInfo-polygonSides="6" basicInfo-starPoints="5" bounding="rect(-16,-16,32,32)" text="" font-familyName="" font-pixelSize="20" font-bold="0" font-underline="0" font-alignment="1" strokeStyle="0" markerStart="0" markerEnd="0" shadowEnabled="0" shadowOffsetX="0" shadowOffsetY="2" shadowBlur="4" shadowOpacity="160" blurEnabled="0" blurRadius="4" transform="matrix(-1,0,0,1,16,16)" pers-center="0,0" pers-size="0,0" pers-start="0,0" pers-end="0,0" locked="0" mesh="" flag=""/>
            <path id="shapePath1" d="M0,12 L12,12 L7.515,7.515 C9.782,5.249 12.795,4 16,4 C19.205,4 22.219,5.248 24.485,7.515 C26.751,9.782 28,12.795 28,16 C28,19.205 26.752,22.219 24.485,24.485 C22.218,26.751 19.205,28 16,28 C12.795,28 9.781,26.752 7.515,24.485 C7.326,24.296 7.144,24.101 6.969,23.902 L3.959,26.536 C6.892,29.885 11.198,32 16,32 C24.837,32 32,24.837 32,16 C32,7.163 24.837,0 16,0 C11.582,0 7.582,1.791 4.687,4.687 L0,0 L0,12 Z" style="stroke:none;fill-rule:nonzero;fill:#444444;fill-opacity:1;"/>
        </g>
        <g id="Shape2">
            <desc shapeID="2" type="0" basicInfo-basicType="0" basicInfo-roundedRectRadius="12" basicInfo-polygonSides="6" basicInfo-starPoints="5" bounding="rect(-16,-16,32,32)" text="" font-familyName="" font-pixelSize="20" font-bold="0" font-underline="0" font-alignment="1" strokeStyle="0" markerStart="0" markerEnd="0" shadowEnabled="0" shadowOffsetX="0" shadowOffsetY="2" shadowBlur="4" shadowOpacity="160" blurEnabled="0" blurRadius="4" transform="matrix(1,0,0,1,-10.5333,58.9333)" pers-center="0,0" pers-size="0,0" pers-start="0,0" pers-end="0,0" locked="0" mesh="" flag=""/>
            <path id="shapePath2" d="M5.46667,54.9333 L-6.53333,54.9333 L-2.04833,50.4483 C-4.31533,48.1823 -7.32833,46.9333 -10.5333,46.9333 C-13.7383,46.9333 -16.7523,48.1813 -19.0183,50.4483 C-21.2843,52.7153 -22.5333,55.7283 -22.5333,58.9333 C-22.5333,62.1383 -21.2853,65.1523 -19.0183,67.4183 C-16.7513,69.6843 -13.7383,70.9333 -10.5333,70.9333 C-7.32833,70.9333 -4.31433,69.6853 -2.04833,67.4183 C-1.85933,67.2293 -1.67733,67.0343 -1.50233,66.8353 L1.50767,69.4693 C-1.42533,72.8183 -5.73133,74.9333 -10.5333,74.9333 C-19.3703,74.9333 -26.5333,67.7703 -26.5333,58.9333 C-26.5333,50.0963 -19.3703,42.9333 -10.5333,42.9333 C-6.11533,42.9333 -2.11533,44.7243 0.779667,47.6203 L5.46667,42.9333 L5.46667,54.9333 Z" style="stroke:none;fill-rule:nonzero;fill:#444444;fill-opacity:1;"/>
        </g>
    </g>
</svg>
